<svg width="15" height="11" viewBox="0 0 15 11" fill="none" xmlns="http://www.w3.org/2000/svg">
<path d="M3.63795 0.443868C3.70041 0.506255 3.74995 0.58034 3.78376 0.661889C3.81756 0.743437 3.83496 0.830849 3.83496 0.919127C3.83496 1.0074 3.81756 1.09482 3.78376 1.17636C3.74995 1.25791 3.70041 1.332 3.63795 1.39439C2.62996 2.40255 2.06369 3.76981 2.06369 5.19545C2.06369 6.62108 2.62996 7.98834 3.63795 8.99651C3.70211 9.05847 3.75328 9.1326 3.78849 9.21455C3.82369 9.29651 3.84222 9.38465 3.843 9.47385C3.84377 9.56304 3.82678 9.6515 3.793 9.73405C3.75923 9.81661 3.70935 9.89161 3.64628 9.95468C3.5832 10.0178 3.5082 10.0676 3.42565 10.1014C3.34309 10.1352 3.25464 10.1522 3.16544 10.1514C3.07625 10.1506 2.9881 10.1321 2.90615 10.0969C2.82419 10.0617 2.75007 10.0105 2.6881 9.94635C0.063601 7.32252 0.063601 3.0677 2.6881 0.443868C2.81407 0.317936 2.9849 0.247191 3.16303 0.247191C3.34115 0.247191 3.51198 0.317936 3.63795 0.443868ZM12.1906 0.443868C14.8144 3.06837 14.8144 7.32252 12.1906 9.94635C12.0646 10.0724 11.8938 10.1432 11.7156 10.1433C11.5374 10.1434 11.3665 10.0726 11.2404 9.94669C11.1144 9.82073 11.0435 9.64986 11.0435 9.47167C11.0434 9.29347 11.1141 9.12255 11.2401 8.99651C12.2481 7.98834 12.8143 6.62108 12.8143 5.19545C12.8143 3.76981 12.2481 2.40255 11.2401 1.39439C11.114 1.26834 11.0432 1.09738 11.0432 0.919127C11.0432 0.74087 11.114 0.569914 11.2401 0.443868C11.3661 0.317822 11.5371 0.247009 11.7153 0.247009C11.8936 0.247009 12.0645 0.317822 12.1906 0.443868ZM5.63101 2.37446C5.75695 2.50043 5.82769 2.67126 5.82769 2.84938C5.82769 3.0275 5.75695 3.19833 5.63101 3.3243C5.38647 3.56883 5.19248 3.85912 5.06013 4.17862C4.92778 4.49812 4.85966 4.84055 4.85966 5.18638C4.85966 5.5322 4.92778 5.87464 5.06013 6.19413C5.19248 6.51363 5.38647 6.80393 5.63101 7.04845C5.69338 7.11086 5.74284 7.18495 5.77658 7.26648C5.81032 7.348 5.82766 7.43538 5.82763 7.52361C5.8276 7.61184 5.81019 7.69921 5.7764 7.78071C5.7426 7.86221 5.69309 7.93626 5.63068 7.99863C5.56826 8.061 5.49418 8.11046 5.41265 8.1442C5.33112 8.17794 5.24375 8.19529 5.15552 8.19525C5.06728 8.19522 4.97992 8.17781 4.89842 8.14402C4.81691 8.11022 4.74286 8.06071 4.6805 7.9983C3.93474 7.25252 3.51579 6.24105 3.51579 5.18638C3.51579 4.13171 3.93474 3.12023 4.6805 2.37446C4.74288 2.312 4.81697 2.26246 4.89852 2.22865C4.98006 2.19485 5.06748 2.17745 5.15575 2.17745C5.24403 2.17745 5.33144 2.19485 5.41299 2.22865C5.49454 2.26246 5.56863 2.312 5.63101 2.37446ZM10.305 2.37446C11.0508 3.12023 11.4697 4.13171 11.4697 5.18638C11.4697 6.24105 11.0508 7.25252 10.305 7.9983C10.1783 8.12066 10.0086 8.18837 9.8325 8.18684C9.65637 8.18531 9.48789 8.11466 9.36334 7.99011C9.2388 7.86557 9.16815 7.69708 9.16662 7.52096C9.16509 7.34483 9.2328 7.17514 9.35516 7.04845C9.59971 6.80393 9.79369 6.51363 9.92604 6.19413C10.0584 5.87464 10.1265 5.5322 10.1265 5.18638C10.1265 4.84055 10.0584 4.49812 9.92604 4.17862C9.79369 3.85912 9.59971 3.56883 9.35516 3.3243C9.2328 3.19761 9.16509 3.02793 9.16662 2.8518C9.16815 2.67567 9.2388 2.50719 9.36334 2.38264C9.48789 2.2581 9.65637 2.18745 9.8325 2.18592C10.0086 2.18439 10.1783 2.2521 10.305 2.37446ZM7.49309 4.23519C7.62541 4.23519 7.75643 4.26125 7.87868 4.31189C8.00093 4.36253 8.11201 4.43675 8.20558 4.53031C8.29914 4.62388 8.37336 4.73496 8.424 4.85721C8.47464 4.97946 8.5007 5.11048 8.5007 5.2428C8.5007 5.37513 8.47464 5.50615 8.424 5.6284C8.37336 5.75065 8.29914 5.86173 8.20558 5.9553C8.11201 6.04886 8.00093 6.12308 7.87868 6.17372C7.75643 6.22436 7.62541 6.25042 7.49309 6.25042C7.22585 6.25042 6.96956 6.14426 6.78059 5.9553C6.59163 5.76633 6.48547 5.51004 6.48547 5.2428C6.48547 4.97557 6.59163 4.71928 6.78059 4.53031C6.96956 4.34135 7.22585 4.23519 7.49309 4.23519Z" fill="white"/>
</svg>
