<svg width="33" height="26" viewBox="0 0 33 26" fill="none" xmlns="http://www.w3.org/2000/svg">
<path d="M1.98097 14.2433C1.62061 14.2433 1.27501 14.1013 1.02019 13.8486C0.765373 13.5959 0.622219 13.2531 0.622219 12.8957C0.622219 12.5383 0.765373 12.1956 1.02019 11.9428C1.27501 11.6901 1.62061 11.5481 1.98097 11.5481L18.739 11.5481V2.11521C18.7392 1.84886 18.819 1.58855 18.9683 1.36716C19.1176 1.14577 19.3298 0.973237 19.5779 0.871341C19.826 0.769444 20.099 0.74276 20.3625 0.794658C20.6259 0.846556 20.8679 0.974708 21.0579 1.16293L31.9279 11.9434C32.1824 12.1961 32.3253 12.5386 32.3253 12.8957C32.3253 13.2528 32.1824 13.5953 31.9279 13.848L21.0579 24.6285C20.8679 24.8167 20.6259 24.9449 20.3625 24.9968C20.099 25.0487 19.826 25.022 19.5779 24.9201C19.3298 24.8182 19.1176 24.6456 18.9683 24.4243C18.819 24.2029 18.7392 23.9426 18.739 23.6762V14.2433L1.98097 14.2433Z" fill="white"/>
</svg>
